<svg xmlns="http://www.w3.org/2000/svg" viewBox="0 0 48 48">
  <defs>
    <linearGradient id="folderGrad" x1="0%" y1="0%" x2="0%" y2="100%">
      <stop offset="0%" style="stop-color:#ffd591"/>
      <stop offset="100%" style="stop-color:#d4a366"/>
    </linearGradient>
    <linearGradient id="folderDark" x1="0%" y1="0%" x2="0%" y2="100%">
      <stop offset="0%" style="stop-color:#d4a366"/>
      <stop offset="100%" style="stop-color:#4a3828"/>
    </linearGradient>
  </defs>
  <!-- Back of folder -->
  <path d="M4 10 L4 40 Q4 42 6 42 L42 42 Q44 42 44 40 L44 14 Q44 12 42 12 L22 12 L18 8 Q17 7 16 7 L6 7 Q4 7 4 10 Z" fill="url(#folderDark)"/>
  <!-- Front of folder -->
  <path d="M4 16 L4 40 Q4 42 6 42 L42 42 Q44 42 44 40 L44 16 Q44 14 42 14 L6 14 Q4 14 4 16 Z" fill="url(#folderGrad)"/>
  <!-- Highlight -->
  <path d="M6 16 L42 16 Q43 16 43 17 L43 18 Q43 19 42 19 L6 19 Q5 19 5 18 L5 17 Q5 16 6 16 Z" fill="#ffd591" opacity="0.5"/>
</svg>
